<svg xmlns="http://www.w3.org/2000/svg" width="36" height="36" viewBox="0 0 36 36" fill="none">
<path fill-rule="evenodd" clip-rule="evenodd" d="M1.75114 0.851078C0.566724 2.00417 0.545541 3.89499 1.70382 5.07433L13.9743 17.5679L0.854994 30.9256C-0.303287 32.105 -0.282104 33.9958 0.902308 35.1489C2.08672 36.302 3.98585 36.2807 5.14413 35.1014L18.1694 21.8393L30.8558 34.7563C32.0141 35.9357 33.9132 35.957 35.0976 34.8039C36.2821 33.6508 36.3032 31.76 35.145 30.5806L22.3646 17.5679L34.2961 5.41935C35.4544 4.24001 35.4332 2.3492 34.2488 1.1961C33.0644 0.0430084 31.1653 0.0642843 30.007 1.24363L18.1694 13.2964L5.99296 0.898599C4.83468 -0.280742 2.93555 -0.302018 1.75114 0.851078Z" fill="#FFB100"/>
</svg>
