<svg width="20" height="20" viewBox="0 0 20 20" fill="none" xmlns="http://www.w3.org/2000/svg">
<path d="M9.99999 18.3333C8.85648 18.3333 7.77778 18.1145 6.76389 17.677C5.75 17.2395 4.86573 16.6435 4.11109 15.8889C3.35647 15.1342 2.76041 14.25 2.32291 13.2361C1.88541 12.2222 1.66666 11.1435 1.66666 9.99996C1.66666 8.84718 1.88541 7.76385 2.32291 6.74996C2.76041 5.73607 3.35647 4.85413 4.11109 4.10413C4.86573 3.35413 5.75 2.76038 6.76389 2.32288C7.77778 1.88538 8.85648 1.66663 9.99999 1.66663C11.1528 1.66663 12.2361 1.88538 13.25 2.32288C14.2639 2.76038 15.1458 3.35413 15.8958 4.10413C16.6458 4.85413 17.2396 5.73607 17.6771 6.74996C18.1146 7.76385 18.3333 8.84718 18.3333 9.99996C18.3333 11.1435 18.1146 12.2222 17.6771 13.2361C17.2396 14.25 16.6458 15.1342 15.8958 15.8889C15.1458 16.6435 14.2639 17.2395 13.25 17.677C12.2361 18.1145 11.1528 18.3333 9.99999 18.3333ZM9.99999 16.9444C11.9352 16.9444 13.5764 16.2685 14.9236 14.9166C16.2708 13.5648 16.9444 11.9259 16.9444 9.99996C16.9444 8.06478 16.2708 6.42357 14.9236 5.07633C13.5764 3.72911 11.9352 3.0555 9.99999 3.0555C8.07406 3.0555 6.43517 3.72911 5.08332 5.07633C3.73146 6.42357 3.05553 8.06478 3.05553 9.99996C3.05553 11.9259 3.73146 13.5648 5.08332 14.9166C6.43517 16.2685 8.07406 16.9444 9.99999 16.9444Z" fill="#FDFDFD"/>
</svg>
